<?xml version="1.0" standalone="no"?>
<!DOCTYPE svg PUBLIC "-//W3C//DTD SVG 1.1//EN" "http://www.w3.org/Graphics/SVG/1.1/DTD/svg11.dtd" >
<svg xmlns="http://www.w3.org/2000/svg">
<metadata>
This is a custom SVG webfont generated by Font Squirrel.
Copyright   : 2002  FFF Fonts For Flash    wwwfontsforflashcom
Foundry     : Yusuke Kamiyamane
</metadata>
<defs>
<font id="FFFAtlantisCondensedRegular" horiz-adv-x="1792" >
<font-face units-per-em="2048" ascent="1638" descent="-410" />
<missing-glyph horiz-adv-x="500" />
<glyph unicode="!" horiz-adv-x="768" d="M0 0v256h512v-256h-512zM0 512v768h512v-768h-512z" />
<glyph unicode="&#x22;" horiz-adv-x="1536" d="M0 768v512h512v-512h-512zM768 768v512h512v-512h-512z" />
<glyph unicode="#" horiz-adv-x="2048" d="M0 256v256h256v256h-256v256h256v256h512v-256h256v256h512v-256h256v-256h-256v-256h256v-256h-256v-256h-512v256h-256v-256h-512v256h-256zM768 512h256v256h-256v-256z" />
<glyph unicode="$" d="M0 0v256h512v256h-256v154h-102v102h-154v256h154v102h102v154h307v205h205v51h256v-256h512v-256h-512v-256h256v-154h102v-102h154v-256h-154v-102h-102v-154h-307v-205h-205v-51h-256v256h-512zM512 768h154v102h102v154h-256v-256zM768 256h256v256h-154v-102h-102 v-154z" />
<glyph unicode="%" d="M0 0v256h256v256h256v256h256v256h256v256h512v-256h-256v-256h-256v-256h-256v-256h-256v-256h-512zM0 1024v256h512v-256h-512zM1024 0v256h512v-256h-512z" />
<glyph unicode="&#x26;" d="M0 256v256h256v154h-102v102h-154v256h154v102h102v154h1024v-256h-768v-256h256v-51h205v-205h102v205h205v51h256v-256h-256v-256h256v-256h-256v51h-205v205h-102v-205h-205v-51h-512v154h-102v102h-154zM512 256h256v256h-256v-256z" />
<glyph unicode="'" horiz-adv-x="768" d="M0 768v512h512v-512h-512z" />
<glyph unicode="(" horiz-adv-x="1024" d="M0 0v1280h154v102h102v154h512v-256h-256v-1280h256v-256h-512v154h-102v102h-154z" />
<glyph unicode=")" horiz-adv-x="1024" d="M0 0h256v1280h-256v256h512v-154h102v-102h154v-1280h-154v-102h-102v-154h-512v256z" />
<glyph unicode="*" d="M0 256v256h256v256h-256v256h256v-154h102v-102h154v512h512v-512h154v102h102v154h256v-256h-256v-256h256v-256h-256v154h-102v102h-154v-512h-512v512h-154v-102h-102v-154h-256z" />
<glyph unicode="+" d="M0 512v256h512v512h512v-512h512v-256h-512v-512h-512v512h-512z" />
<glyph unicode="," horiz-adv-x="768" d="M0 0h51v205h205v51h256v-256h-154v-102h-102v-154h-256v256z" />
<glyph unicode="-" horiz-adv-x="1280" d="M0 512v256h1024v-256h-1024z" />
<glyph unicode="." horiz-adv-x="768" d="M0 0v256h512v-256h-512z" />
<glyph unicode="/" d="M0 0v256h256v256h256v256h256v256h256v256h512v-256h-256v-256h-256v-256h-256v-256h-256v-256h-512z" />
<glyph unicode="0" d="M0 256v768h154v102h102v154h1024v-154h102v-102h154v-768h-154v-102h-102v-154h-1024v154h-102v102h-154zM512 256h512v768h-512v-768z" />
<glyph unicode="1" horiz-adv-x="1024" d="M0 1024v256h768v-1280h-512v1024h-256z" />
<glyph unicode="2" d="M0 0v512h154v102h102v154h768v256h-1024v256h1280v-154h102v-102h154v-256h-154v-102h-102v-154h-768v-256h1024v-256h-1536z" />
<glyph unicode="3" d="M0 0v256h1024v256h-768v154h-102v102h870v256h-1024v256h1280v-154h102v-102h154v-256h-154v-102h-102v-154h256v-256h-154v-102h-102v-154h-1280z" />
<glyph unicode="4" d="M0 256v512h256v256h256v256h768v-768h256v-256h-256v-256h-512v256h-768zM512 512h256v256h-256v-256z" />
<glyph unicode="5" d="M0 0v256h1024v256h-1024v768h1536v-256h-1024v-256h768v-154h102v-102h154v-256h-154v-102h-102v-154h-1280z" />
<glyph unicode="6" d="M0 256v768h154v102h102v154h1126v-102h-102v-154h-768v-256h768v-154h102v-102h154v-256h-154v-102h-102v-154h-1024v154h-102v102h-154zM512 256h512v256h-512v-256z" />
<glyph unicode="7" d="M0 1024v256h1536v-512h-256v-256h-256v-256h-256v-256h-512v256h256v256h256v256h256v256h-1024z" />
<glyph unicode="8" d="M0 256v256h256v154h-102v102h-154v256h154v102h102v154h1024v-154h102v-102h154v-256h-154v-102h-102v-154h256v-256h-154v-102h-102v-154h-1024v154h-102v102h-154zM512 256h512v256h-512v-256zM512 768h512v256h-512v-256z" />
<glyph unicode="9" d="M0 768v256h154v102h102v154h1024v-154h102v-102h154v-768h-154v-102h-102v-154h-1024v154h-102v102h870v256h-768v154h-102v102h-154zM512 768h512v256h-512v-256z" />
<glyph unicode=":" horiz-adv-x="768" d="M0 0v256h512v-256h-512zM0 1024v256h512v-256h-512z" />
<glyph unicode=";" horiz-adv-x="768" d="M0 0h51v205h205v51h256v-256h-154v-102h-102v-154h-256v256zM0 1024v256h512v-256h-512z" />
<glyph unicode="&#x3c;" horiz-adv-x="1280" d="M0 512v256h256v256h256v256h512v-256h-256v-256h-256v-256h256v-256h256v-256h-512v256h-256v256h-256z" />
<glyph unicode="=" horiz-adv-x="1280" d="M0 256v256h1024v-256h-1024zM0 768v256h1024v-256h-1024z" />
<glyph unicode="&#x3e;" horiz-adv-x="1280" d="M0 0v256h256v256h256v256h-256v256h-256v256h512v-256h256v-256h256v-256h-256v-256h-256v-256h-512z" />
<glyph unicode="?" horiz-adv-x="1536" d="M0 1024v256h1024v-154h102v-102h154v-256h-154v-102h-102v-154h-666v-102h-102v102h51v205h205v51h256v256h-768zM256 0v256h512v-256h-512z" />
<glyph unicode="@" horiz-adv-x="2048" d="M0 256v768h154v102h102v154h154v102h102v154h768v-154h102v-102h154v-154h102v-102h154v-768h-154v-102h-102v-154h-256v154h-102v100h-666v-254h512v-256h-512v154h-102v102h-154v154h-102v102h-154zM256 256h512v51h-205v205h-51v256h154v102h102v154h512v256h-768 v-256h-256v-768zM768 512h256v256h-256v-256zM1280 256h256v766h-256v-766z" />
<glyph unicode="A" d="M0 0v1024h154v102h102v154h1024v-154h102v-102h154v-1024h-512v512h-512v-512h-512zM512 768h512v256h-512v-256z" />
<glyph unicode="B" d="M0 0v1280h1280v-154h102v-102h154v-256h-154v-102h-102v-154h256v-256h-154v-102h-102v-154h-1280zM512 256h512v256h-512v-256zM512 768h512v256h-512v-256z" />
<glyph unicode="C" d="M0 256v768h154v102h102v154h1280v-256h-1024v-768h1024v-256h-1280v154h-102v102h-154z" />
<glyph unicode="D" d="M0 0v1280h1280v-154h102v-102h154v-768h-154v-102h-102v-154h-1280zM512 256h512v768h-512v-768z" />
<glyph unicode="E" d="M0 0v1280h1536v-256h-1024v-256h870v-102h-102v-154h-768v-256h1024v-256h-1536z" />
<glyph unicode="F" d="M0 0v1280h1536v-256h-1024v-256h870v-102h-102v-154h-768v-512h-512z" />
<glyph unicode="G" d="M0 256v768h154v102h102v154h1280v-256h-1024v-768h512v256h-256v256h768v-768h-1280v154h-102v102h-154z" />
<glyph unicode="H" d="M0 0v1280h512v-512h512v512h512v-1280h-512v512h-512v-512h-512z" />
<glyph unicode="I" horiz-adv-x="768" d="M0 0v1280h512v-1280h-512z" />
<glyph unicode="J" horiz-adv-x="1536" d="M0 0v256h768v1024h512v-1024h-154v-102h-102v-154h-1024z" />
<glyph unicode="K" d="M0 0v1280h512v-512h256v256h256v256h512v-256h-256v-256h-256v-256h256v-256h256v-256h-512v256h-256v256h-256v-512h-512z" />
<glyph unicode="L" horiz-adv-x="1536" d="M0 0v1280h512v-1024h768v-256h-1280z" />
<glyph unicode="M" horiz-adv-x="2304" d="M0 0v1280h512v-256h256v-256h512v256h256v256h512v-1280h-512v512h-256v-256h-512v256h-256v-512h-512z" />
<glyph unicode="N" d="M0 0v1280h512v-256h256v-256h256v512h512v-1280h-512v256h-256v256h-256v-512h-512z" />
<glyph unicode="O" d="M0 256v768h154v102h102v154h1024v-154h102v-102h154v-768h-154v-102h-102v-154h-1024v154h-102v102h-154zM512 256h512v768h-512v-768z" />
<glyph unicode="P" d="M0 0v1280h1280v-154h102v-102h154v-256h-154v-102h-102v-154h-768v-512h-512zM512 768h512v256h-512v-256z" />
<glyph unicode="Q" d="M0 256v768h154v102h102v154h1024v-154h102v-102h154v-768h-154v-102h-102v-154h256v-256h-512v154h-102v102h-666v154h-102v102h-154zM512 256h512v768h-512v-768z" />
<glyph unicode="R" d="M0 0v1280h1280v-154h102v-102h154v-256h-154v-102h-102v-205h205v-205h51v-256h-512v410h-102v102h-410v-512h-512zM512 768h512v256h-512v-256z" />
<glyph unicode="S" d="M0 0v256h1024v256h-768v154h-102v102h-154v256h154v102h102v154h1280v-256h-1024v-256h768v-154h102v-102h154v-256h-154v-102h-102v-154h-1280z" />
<glyph unicode="T" d="M0 1024v256h1536v-256h-512v-1024h-512v1024h-512z" />
<glyph unicode="U" d="M0 256v1024h512v-1024h512v1024h512v-1024h-154v-102h-102v-154h-1024v154h-102v102h-154z" />
<glyph unicode="V" d="M0 768v512h512v-666h102v-102h308v102h102v666h512v-512h-51v-205h-205v-307h-256v-256h-512v256h-256v307h-205v205h-51z" />
<glyph unicode="W" horiz-adv-x="2304" d="M0 256v1024h512v-1024h256v1024h512v-1024h256v1024h512v-1024h-154v-102h-102v-154h-512v51h-205v205h-102v-205h-205v-51h-512v154h-102v102h-154z" />
<glyph unicode="X" d="M0 0v256h256v256h256v256h-256v256h-256v256h512v-256h512v256h512v-256h-256v-256h-256v-256h256v-256h256v-256h-512v256h-512v-256h-512z" />
<glyph unicode="Y" d="M0 1024v256h512v-256h512v256h512v-256h-256v-256h-256v-768h-512v768h-256v256h-256z" />
<glyph unicode="Z" d="M0 0v256h256v256h256v256h256v256h-768v256h1536v-256h-256v-256h-256v-256h-256v-256h768v-256h-1536z" />
<glyph unicode="[" horiz-adv-x="1024" d="M0 -256v1792h768v-256h-256v-1280h256v-256h-768z" />
<glyph unicode="\" d="M0 1024v256h512v-256h256v-256h256v-256h256v-256h256v-256h-512v256h-256v256h-256v256h-256v256h-256z" />
<glyph unicode="]" horiz-adv-x="1024" d="M0 0h256v1280h-256v256h768v-1792h-768v256z" />
<glyph unicode="^" horiz-adv-x="1024" d="M0 768v256h154v102h102v154h256v-154h102v-102h154v-256h-256v256h-154v-102h-102v-154h-256z" />
<glyph unicode="_" horiz-adv-x="1280" d="M0 0v256h1024v-256h-1024z" />
<glyph unicode="`" horiz-adv-x="768" d="M0 1792v256h256v-51h205v-205h51v-256h-256v154h-102v102h-154z" />
<glyph unicode="a" d="M0 0v1024h154v102h102v154h1024v-154h102v-102h154v-1024h-512v512h-512v-512h-512zM512 768h512v256h-512v-256z" />
<glyph unicode="b" d="M0 0v1280h1280v-154h102v-102h154v-256h-154v-102h-102v-154h256v-256h-154v-102h-102v-154h-1280zM512 256h512v256h-512v-256zM512 768h512v256h-512v-256z" />
<glyph unicode="c" d="M0 256v768h154v102h102v154h1280v-256h-1024v-768h1024v-256h-1280v154h-102v102h-154z" />
<glyph unicode="d" d="M0 0v1280h1280v-154h102v-102h154v-768h-154v-102h-102v-154h-1280zM512 256h512v768h-512v-768z" />
<glyph unicode="e" d="M0 0v1280h1536v-256h-1024v-256h870v-102h-102v-154h-768v-256h1024v-256h-1536z" />
<glyph unicode="f" d="M0 0v1280h1536v-256h-1024v-256h870v-102h-102v-154h-768v-512h-512z" />
<glyph unicode="g" d="M0 256v768h154v102h102v154h1280v-256h-1024v-768h512v256h-256v256h768v-768h-1280v154h-102v102h-154z" />
<glyph unicode="h" d="M0 0v1280h512v-512h512v512h512v-1280h-512v512h-512v-512h-512z" />
<glyph unicode="i" horiz-adv-x="768" d="M0 0v1280h512v-1280h-512z" />
<glyph unicode="j" horiz-adv-x="1536" d="M0 0v256h768v1024h512v-1024h-154v-102h-102v-154h-1024z" />
<glyph unicode="k" d="M0 0v1280h512v-512h256v256h256v256h512v-256h-256v-256h-256v-256h256v-256h256v-256h-512v256h-256v256h-256v-512h-512z" />
<glyph unicode="l" horiz-adv-x="1536" d="M0 0v1280h512v-1024h768v-256h-1280z" />
<glyph unicode="m" horiz-adv-x="2304" d="M0 0v1280h512v-256h256v-256h512v256h256v256h512v-1280h-512v512h-256v-256h-512v256h-256v-512h-512z" />
<glyph unicode="n" d="M0 0v1280h512v-256h256v-256h256v512h512v-1280h-512v256h-256v256h-256v-512h-512z" />
<glyph unicode="o" d="M0 256v768h154v102h102v154h1024v-154h102v-102h154v-768h-154v-102h-102v-154h-1024v154h-102v102h-154zM512 256h512v768h-512v-768z" />
<glyph unicode="p" d="M0 0v1280h1280v-154h102v-102h154v-256h-154v-102h-102v-154h-768v-512h-512zM512 768h512v256h-512v-256z" />
<glyph unicode="q" d="M0 256v768h154v102h102v154h1024v-154h102v-102h154v-768h-154v-102h-102v-154h256v-256h-512v154h-102v102h-666v154h-102v102h-154zM512 256h512v768h-512v-768z" />
<glyph unicode="r" d="M0 0v1280h1280v-154h102v-102h154v-256h-154v-102h-102v-205h205v-205h51v-256h-512v410h-102v102h-410v-512h-512zM512 768h512v256h-512v-256z" />
<glyph unicode="s" d="M0 0v256h1024v256h-768v154h-102v102h-154v256h154v102h102v154h1280v-256h-1024v-256h768v-154h102v-102h154v-256h-154v-102h-102v-154h-1280z" />
<glyph unicode="t" d="M0 1024v256h1536v-256h-512v-1024h-512v1024h-512z" />
<glyph unicode="u" d="M0 256v1024h512v-1024h512v1024h512v-1024h-154v-102h-102v-154h-1024v154h-102v102h-154z" />
<glyph unicode="v" d="M0 768v512h512v-666h102v-102h308v102h102v666h512v-512h-51v-205h-205v-307h-256v-256h-512v256h-256v307h-205v205h-51z" />
<glyph unicode="w" horiz-adv-x="2304" d="M0 256v1024h512v-1024h256v1024h512v-1024h256v1024h512v-1024h-154v-102h-102v-154h-512v51h-205v205h-102v-205h-205v-51h-512v154h-102v102h-154z" />
<glyph unicode="x" d="M0 0v256h256v256h256v256h-256v256h-256v256h512v-256h512v256h512v-256h-256v-256h-256v-256h256v-256h256v-256h-512v256h-512v-256h-512z" />
<glyph unicode="y" d="M0 1024v256h512v-256h512v256h512v-256h-256v-256h-256v-768h-512v768h-256v256h-256z" />
<glyph unicode="z" d="M0 0v256h256v256h256v256h256v256h-768v256h1536v-256h-256v-256h-256v-256h-256v-256h768v-256h-1536z" />
<glyph unicode="{" horiz-adv-x="1280" d="M0 512v256h256v512h154v102h102v154h512v-256h-256v-512h-256v-256h256v-512h256v-256h-512v154h-102v102h-154v512h-256z" />
<glyph unicode="|" horiz-adv-x="768" d="M0 -256v1792h512v-1792h-512z" />
<glyph unicode="}" horiz-adv-x="1280" d="M0 0h256v512h256v256h-256v512h-256v256h512v-154h102v-102h154v-512h256v-256h-256v-512h-154v-102h-102v-154h-512v256z" />
<glyph unicode="~" horiz-adv-x="1280" d="M0 768v256h154v102h102v154h256v-154h102v-102h154v256h256v-256h-154v-102h-102v-154h-256v154h-102v102h-154v-256h-256z" />
<glyph unicode="&#xa1;" horiz-adv-x="768" d="M0 0v768h512v-768h-512zM0 1024v256h512v-256h-512z" />
<glyph unicode="&#xa2;" d="M0 256v768h154v102h102v154h512v256h512v-256h256v-256h-256v-768h256v-256h-256v-256h-512v256h-512v154h-102v102h-154zM512 256h256v768h-256v-768z" />
<glyph unicode="&#xa3;" d="M0 0v256h256v256h-256v256h256v256h154v102h102v154h1024v-256h-768v-256h614v-102h-102v-154h-512v-256h768v-256h-1536z" />
<glyph unicode="&#xa4;" horiz-adv-x="1536" d="M0 0v256h512v51h-205v205h-51v256h51v205h205v49h-512v258h256v-256h768v256h256v-258h-512v-49h205v-205h51v-256h-51v-205h-205v-51h512v-256h-256v254h-768v-254h-256zM512 512h256v256h-256v-256z" />
<glyph unicode="&#xa5;" d="M0 256v256h512v256h-256v256h-256v256h512v-256h512v256h512v-256h-256v-256h-256v-256h512v-256h-512v-256h-512v256h-512z" />
<glyph unicode="&#xa6;" horiz-adv-x="768" d="M0 -256v768h512v-768h-512zM0 768v768h512v-768h-512z" />
<glyph unicode="&#xa7;" d="M0 0h1024v256h-768v154h-102v102h-154v256h256v154h-102v102h-154v256h154v102h102v154h1280v-256h-1024v-256h768v-154h102v-102h154v-256h-154v-102h-102v-154h256v-256h-154v-102h-102v-154h-1280v256zM512 512h512v256h-512v-256z" />
<glyph unicode="&#xa8;" horiz-adv-x="1536" d="M0 1536v256h512v-256h-512zM768 1536v256h512v-256h-512z" />
<glyph unicode="&#xa9;" horiz-adv-x="2048" d="M0 256v768h154v102h102v154h154v102h102v154h768v-154h102v-102h154v-154h102v-102h154v-768h-154v-102h-102v-154h-154v-102h-102v-154h-768v154h-102v102h-154v154h-102v102h-154zM256 256h256v-256h768v254h-512v156h-102v102h-154v256h154v102h102v154h512v256h-768 v-256h-256v-768zM768 512h256v-51h205v-205h307v766h-307v-203h-205v-51h-256v-256z" />
<glyph unicode="&#xaa;" horiz-adv-x="1024" d="M0 768v256h154v102h102v154h512v-768h-512v51h-205v205h-51zM256 768h256v256h-256v-256z" />
<glyph unicode="&#xab;" horiz-adv-x="2304" d="M0 512v256h256v256h256v256h512v-256h-256v-256h-256v-256h256v-256h256v-256h-512v256h-256v256h-256zM1024 512v256h256v256h256v256h512v-256h-256v-256h-256v-256h256v-256h256v-256h-512v256h-256v256h-256z" />
<glyph unicode="&#xac;" horiz-adv-x="1280" d="M0 768v256h1024v-768h-512v512h-512z" />
<glyph unicode="&#xad;" horiz-adv-x="1280" d="M0 512v256h1024v-256h-1024z" />
<glyph unicode="&#xae;" horiz-adv-x="2048" d="M0 256v768h154v102h102v154h154v102h102v154h768v-154h102v-102h154v-154h102v-102h154v-768h-154v-102h-102v-154h-154v-102h-102v-154h-768v154h-102v102h-154v154h-102v102h-154zM256 256h256v766h-256v-766zM512 0h768v254h-256v156h-102v102h102v51h-205v205h-51 v-514h-256v-254zM512 1024h768v256h-768v-256zM1024 614h102v-102h154v-256h256v766h-256v-254h-256v-154z" />
<glyph unicode="&#xaf;" horiz-adv-x="1280" d="M0 1536v256h1024v-256h-1024z" />
<glyph unicode="&#xb0;" horiz-adv-x="1024" d="M0 768v256h154v102h102v154h256v-154h102v-102h154v-256h-154v-102h-102v-154h-256v154h-102v102h-154zM256 768h256v256h-256v-256z" />
<glyph unicode="&#xb1;" d="M0 0v256h1536v-256h-1536zM0 768v256h512v256h512v-256h512v-256h-512v-256h-512v256h-512z" />
<glyph unicode="&#xb2;" horiz-adv-x="1280" d="M0 768v512h154v102h102v154h256v256h-512v256h768v-154h102v-102h154v-256h-154v-102h-102v-154h-256v-256h512v-256h-1024z" />
<glyph unicode="&#xb3;" horiz-adv-x="1280" d="M0 768v256h512v254h-256v156h-102v102h358v256h-512v256h768v-154h102v-102h154v-256h-154v-102h-102v-154h256v-256h-154v-102h-102v-154h-768z" />
<glyph unicode="&#xb4;" horiz-adv-x="768" d="M0 1536v256h51v205h205v51h256v-256h-154v-102h-102v-154h-256z" />
<glyph unicode="&#xb5;" d="M0 -256v1536h512v-1024h410v102h102v922h512v-1280h-512v256h-51v-205h-205v-51h-256v-256h-512z" />
<glyph unicode="&#xb6;" horiz-adv-x="2048" d="M0 768v512h154v102h102v154h1536v-1792h-512v1536h-256v-1536h-512v768h-256v154h-102v102h-154z" />
<glyph unicode="&#xb7;" horiz-adv-x="768" d="M0 512v256h512v-256h-512z" />
<glyph unicode="&#xb8;" horiz-adv-x="768" d="M0 -256h51v205h205v51h256v-256h-154v-102h-102v-154h-256v256z" />
<glyph unicode="&#xb9;" horiz-adv-x="1024" d="M0 1792v256h768v-1280h-512v1024h-256z" />
<glyph unicode="&#xba;" horiz-adv-x="1024" d="M0 768v256h154v102h102v154h256v-154h102v-102h154v-256h-154v-102h-102v-154h-256v154h-102v102h-154zM256 768h256v256h-256v-256z" />
<glyph unicode="&#xbb;" horiz-adv-x="2304" d="M0 0v256h256v256h256v256h-256v256h-256v256h512v-256h256v-256h256v-256h-256v-256h-256v-256h-512zM1024 0v256h256v256h256v256h-256v256h-256v256h512v-256h256v-256h256v-256h-256v-256h-256v-256h-512z" />
<glyph unicode="&#xbc;" horiz-adv-x="3840" d="M0 1024v256h768v-1280h-512v1024h-256zM1024 0v256h51v205h205v307h154v102h102v410h512v-256h-51v-205h-205v-307h-154v-102h-102v-410h-512zM2304 256v512h256v256h256v256h768v-1280h-512v256h-768zM2816 512h256v256h-256v-256z" />
<glyph unicode="&#xbd;" horiz-adv-x="3584" d="M0 1024v256h768v-1280h-512v1024h-256zM1024 0h512v410h102v102h154v307h205v205h51v256h-512v-410h-102v-102h-154v-307h-205v-205h-51v-256zM2304 0v512h154v102h102v154h256v256h-512v256h768v-154h102v-102h154v-256h-154v-102h-102v-154h-256v-256h512v-256h-1024z " />
<glyph unicode="&#xbe;" horiz-adv-x="4096" d="M0 0v256h512v254h-256v156h-102v102h358v256h-512v256h768v-154h102v-102h154v-256h-154v-102h-102v-154h256v-256h-154v-102h-102v-154h-768zM1280 0v256h51v205h205v307h154v102h102v410h512v-256h-51v-205h-205v-307h-154v-102h-102v-410h-512zM2560 256v512h256v256 h256v256h768v-1280h-512v256h-768zM3072 512h256v256h-256v-256z" />
<glyph unicode="&#xbf;" horiz-adv-x="1536" d="M0 256v256h154v102h102v154h666v102h102v-102h-51v-205h-205v-51h-256v-256h768v-256h-1024v154h-102v102h-154zM512 1024v256h512v-256h-512z" />
<glyph unicode="&#xc0;" d="M0 0v1024h154v102h102v154h1024v-154h102v-102h154v-1024h-512v512h-512v-512h-512zM512 768h512v256h-512v-256zM512 1792v256h256v-51h205v-205h51v-256h-256v154h-102v102h-154z" />
<glyph unicode="&#xc1;" d="M0 0v1024h154v102h102v154h1024v-154h102v-102h154v-1024h-512v512h-512v-512h-512zM512 768h512v256h-512v-256zM512 1536v256h51v205h205v51h256v-256h-154v-102h-102v-154h-256z" />
<glyph unicode="&#xc2;" d="M0 0v1024h154v102h102v154h1024v-154h102v-102h154v-1024h-512v512h-512v-512h-512zM256 1536v256h154v102h102v154h512v-154h102v-102h154v-256h-256v154h-102v102h-308v-102h-102v-154h-256zM512 768h512v256h-512v-256z" />
<glyph unicode="&#xc3;" d="M0 0v1024h154v102h102v154h1024v-154h102v-102h154v-1024h-512v512h-512v-512h-512zM256 1536v256h154v102h102v154h256v-154h102v-102h154v256h256v-256h-154v-102h-102v-154h-256v154h-102v102h-154v-256h-256zM512 768h512v256h-512v-256z" />
<glyph unicode="&#xc4;" d="M0 0v1024h154v102h102v154h1024v-154h102v-102h154v-1024h-512v512h-512v-512h-512zM0 1536v256h512v-256h-512zM512 768h512v256h-512v-256zM1024 1536v256h512v-256h-512z" />
<glyph unicode="&#xc5;" d="M0 0v1024h154v102h102v154h1024v-154h102v-102h154v-1024h-512v512h-512v-512h-512zM256 1792v256h154v102h102v154h512v-154h102v-102h154v-256h-154v-102h-102v-154h-512v154h-102v102h-154zM512 768h512v256h-512v-256zM512 1792h512v256h-512v-256z" />
<glyph unicode="&#xc6;" horiz-adv-x="2816" d="M0 0v1024h154v102h102v154h2304v-256h-1024v-256h870v-102h-102v-154h-768v-256h1024v-256h-1536v512h-512v-512h-512zM512 768h512v256h-512v-256z" />
<glyph unicode="&#xc7;" d="M0 256v768h154v102h102v154h1280v-256h-1024v-768h1024v-256h-1280v154h-102v102h-154zM512 -256h51v205h205v51h256v-256h-154v-102h-102v-154h-256v256z" />
<glyph unicode="&#xc8;" d="M0 0v1280h1536v-256h-1024v-256h870v-102h-102v-154h-768v-256h1024v-256h-1536zM512 1792v256h256v-51h205v-205h51v-256h-256v154h-102v102h-154z" />
<glyph unicode="&#xc9;" d="M0 0v1280h1536v-256h-1024v-256h870v-102h-102v-154h-768v-256h1024v-256h-1536zM512 1536v256h51v205h205v51h256v-256h-154v-102h-102v-154h-256z" />
<glyph unicode="&#xca;" d="M0 0v1280h1536v-256h-1024v-256h870v-102h-102v-154h-768v-256h1024v-256h-1536zM256 1536v256h154v102h102v154h512v-154h102v-102h154v-256h-256v154h-102v102h-308v-102h-102v-154h-256z" />
<glyph unicode="&#xcb;" d="M0 0v1280h1536v-256h-1024v-256h870v-102h-102v-154h-768v-256h1024v-256h-1536zM0 1536v256h512v-256h-512zM1024 1536v256h512v-256h-512z" />
<glyph unicode="&#xcc;" horiz-adv-x="768" d="M0 0v1280h512v-1280h-512zM0 1792v256h256v-51h205v-205h51v-256h-256v154h-102v102h-154z" />
<glyph unicode="&#xcd;" horiz-adv-x="768" d="M0 0v1280h512v-1280h-512zM0 1536v256h51v205h205v51h256v-256h-154v-102h-102v-154h-256z" />
<glyph unicode="&#xce;" horiz-adv-x="768" d="M-256 1536v256h154v102h102v154h512v-154h102v-102h154v-256h-256v154h-102v102h-308v-102h-102v-154h-256zM0 0v1280h512v-1280h-512z" />
<glyph unicode="&#xcf;" horiz-adv-x="768" d="M-256 1536v512h256v-512h-256zM0 0v1280h512v-1280h-512zM512 1536v512h256v-512h-256z" />
<glyph unicode="&#xd0;" horiz-adv-x="2048" d="M0 512v256h256v512h1280v-154h102v-102h154v-768h-154v-102h-102v-154h-1280v512h-256zM768 256h512v768h-512v-256h256v-256h-256v-256z" />
<glyph unicode="&#xd1;" d="M0 0v1280h512v-256h256v-256h256v512h512v-1280h-512v256h-256v256h-256v-512h-512zM256 1536v256h154v102h102v154h256v-154h102v-102h154v256h256v-256h-154v-102h-102v-154h-256v154h-102v102h-154v-256h-256z" />
<glyph unicode="&#xd2;" d="M0 256v768h154v102h102v154h1024v-154h102v-102h154v-768h-154v-102h-102v-154h-1024v154h-102v102h-154zM512 256h512v768h-512v-768zM512 1792v256h256v-51h205v-205h51v-256h-256v154h-102v102h-154z" />
<glyph unicode="&#xd3;" d="M0 256v768h154v102h102v154h1024v-154h102v-102h154v-768h-154v-102h-102v-154h-1024v154h-102v102h-154zM512 256h512v768h-512v-768zM512 1536v256h51v205h205v51h256v-256h-154v-102h-102v-154h-256z" />
<glyph unicode="&#xd4;" d="M0 256v768h154v102h102v154h1024v-154h102v-102h154v-768h-154v-102h-102v-154h-1024v154h-102v102h-154zM256 1536v256h154v102h102v154h512v-154h102v-102h154v-256h-256v154h-102v102h-308v-102h-102v-154h-256zM512 256h512v768h-512v-768z" />
<glyph unicode="&#xd5;" d="M0 256v768h154v102h102v154h1024v-154h102v-102h154v-768h-154v-102h-102v-154h-1024v154h-102v102h-154zM256 1536v256h154v102h102v154h256v-154h102v-102h154v256h256v-256h-154v-102h-102v-154h-256v154h-102v102h-154v-256h-256zM512 256h512v768h-512v-768z" />
<glyph unicode="&#xd6;" d="M0 256v768h154v102h102v154h1024v-154h102v-102h154v-768h-154v-102h-102v-154h-1024v154h-102v102h-154zM0 1536v256h512v-256h-512zM512 256h512v768h-512v-768zM1024 1536v256h512v-256h-512z" />
<glyph unicode="&#xd7;" d="M0 0v256h256v256h256v256h-256v256h-256v256h512v-256h512v256h512v-256h-256v-256h-256v-256h256v-256h256v-256h-512v256h-512v-256h-512z" />
<glyph unicode="&#xd8;" d="M0 0v256h256v154h-102v102h-154v512h154v102h102v154h512v-51h205v-205h51v256h512v-256h-256v-154h102v-102h154v-512h-154v-102h-102v-154h-512v51h-205v205h-51v-256h-512zM256 717h205v-205h51v256h256v256h-307v-205h-205v-102zM768 256h307v205h205v102h-205v205 h-51v-256h-256v-256z" />
<glyph unicode="&#xd9;" d="M0 256v1024h512v-1024h512v1024h512v-1024h-154v-102h-102v-154h-1024v154h-102v102h-154zM512 1792v256h256v-51h205v-205h51v-256h-256v154h-102v102h-154z" />
<glyph unicode="&#xda;" d="M0 256v1024h512v-1024h512v1024h512v-1024h-154v-102h-102v-154h-1024v154h-102v102h-154zM512 1536v256h51v205h205v51h256v-256h-154v-102h-102v-154h-256z" />
<glyph unicode="&#xdb;" d="M0 256v1024h512v-1024h512v1024h512v-1024h-154v-102h-102v-154h-1024v154h-102v102h-154zM256 1536v256h154v102h102v154h512v-154h102v-102h154v-256h-256v154h-102v102h-308v-102h-102v-154h-256z" />
<glyph unicode="&#xdc;" d="M0 256v1024h512v-1024h512v1024h512v-1024h-154v-102h-102v-154h-1024v154h-102v102h-154zM0 1536v256h512v-256h-512zM1024 1536v256h512v-256h-512z" />
<glyph unicode="&#xdd;" d="M0 1024v256h512v-256h512v256h512v-256h-256v-256h-256v-768h-512v768h-256v256h-256zM512 1536v256h51v205h205v51h256v-256h-154v-102h-102v-154h-256z" />
<glyph unicode="&#xde;" d="M0 -256v1792h512v-512h51v205h205v51h512v-154h102v-102h154v-768h-154v-102h-102v-154h-512v51h-205v205h-51v-512h-512zM512 358h102v-102h410v768h-410v-102h-102v-564z" />
<glyph unicode="&#xdf;" d="M0 -256v1280h51v205h205v51h1024v-154h102v-102h154v-256h-154v-102h-102v-154h256v-256h-154v-102h-102v-154h-512v154h-102v102h358v256h-256v154h-102v102h358v256h-512v-1280h-512z" />
<glyph unicode="&#xe0;" d="M0 0v1024h154v102h102v154h1024v-154h102v-102h154v-1024h-512v512h-512v-512h-512zM512 768h512v256h-512v-256zM512 1792v256h256v-51h205v-205h51v-256h-256v154h-102v102h-154z" />
<glyph unicode="&#xe1;" d="M0 0v1024h154v102h102v154h1024v-154h102v-102h154v-1024h-512v512h-512v-512h-512zM512 768h512v256h-512v-256zM512 1536v256h51v205h205v51h256v-256h-154v-102h-102v-154h-256z" />
<glyph unicode="&#xe2;" d="M0 0v1024h154v102h102v154h1024v-154h102v-102h154v-1024h-512v512h-512v-512h-512zM256 1536v256h154v102h102v154h512v-154h102v-102h154v-256h-256v154h-102v102h-308v-102h-102v-154h-256zM512 768h512v256h-512v-256z" />
<glyph unicode="&#xe3;" d="M0 0v1024h154v102h102v154h1024v-154h102v-102h154v-1024h-512v512h-512v-512h-512zM256 1536v256h154v102h102v154h256v-154h102v-102h154v256h256v-256h-154v-102h-102v-154h-256v154h-102v102h-154v-256h-256zM512 768h512v256h-512v-256z" />
<glyph unicode="&#xe4;" d="M0 0v1024h154v102h102v154h1024v-154h102v-102h154v-1024h-512v512h-512v-512h-512zM0 1536v256h512v-256h-512zM512 768h512v256h-512v-256zM1024 1536v256h512v-256h-512z" />
<glyph unicode="&#xe5;" d="M0 0v1024h154v102h102v154h1024v-154h102v-102h154v-1024h-512v512h-512v-512h-512zM256 1792v256h154v102h102v154h512v-154h102v-102h154v-256h-154v-102h-102v-154h-512v154h-102v102h-154zM512 768h512v256h-512v-256zM512 1792h512v256h-512v-256z" />
<glyph unicode="&#xe6;" horiz-adv-x="2816" d="M0 0v1024h154v102h102v154h2304v-256h-1024v-256h870v-102h-102v-154h-768v-256h1024v-256h-1536v512h-512v-512h-512zM512 768h512v256h-512v-256z" />
<glyph unicode="&#xe7;" d="M0 256v768h154v102h102v154h1280v-256h-1024v-768h1024v-256h-1280v154h-102v102h-154zM512 -256h51v205h205v51h256v-256h-154v-102h-102v-154h-256v256z" />
<glyph unicode="&#xe8;" d="M0 0v1280h1536v-256h-1024v-256h870v-102h-102v-154h-768v-256h1024v-256h-1536zM512 1792v256h256v-51h205v-205h51v-256h-256v154h-102v102h-154z" />
<glyph unicode="&#xe9;" d="M0 0v1280h1536v-256h-1024v-256h870v-102h-102v-154h-768v-256h1024v-256h-1536zM512 1536v256h51v205h205v51h256v-256h-154v-102h-102v-154h-256z" />
<glyph unicode="&#xea;" d="M0 0v1280h1536v-256h-1024v-256h870v-102h-102v-154h-768v-256h1024v-256h-1536zM256 1536v256h154v102h102v154h512v-154h102v-102h154v-256h-256v154h-102v102h-308v-102h-102v-154h-256z" />
<glyph unicode="&#xeb;" d="M0 0v1280h1536v-256h-1024v-256h870v-102h-102v-154h-768v-256h1024v-256h-1536zM0 1536v256h512v-256h-512zM1024 1536v256h512v-256h-512z" />
<glyph unicode="&#xec;" horiz-adv-x="768" d="M0 0v1280h512v-1280h-512zM0 1792v256h256v-51h205v-205h51v-256h-256v154h-102v102h-154z" />
<glyph unicode="&#xed;" horiz-adv-x="768" d="M0 0v1280h512v-1280h-512zM0 1536v256h51v205h205v51h256v-256h-154v-102h-102v-154h-256z" />
<glyph unicode="&#xee;" horiz-adv-x="768" d="M-256 1536v256h154v102h102v154h512v-154h102v-102h154v-256h-256v154h-102v102h-308v-102h-102v-154h-256zM0 0v1280h512v-1280h-512z" />
<glyph unicode="&#xef;" horiz-adv-x="768" d="M-256 1536v512h256v-512h-256zM0 0v1280h512v-1280h-512zM512 1536v512h256v-512h-256z" />
<glyph unicode="&#xf0;" horiz-adv-x="2048" d="M0 512v256h256v512h1280v-154h102v-102h154v-768h-154v-102h-102v-154h-1280v512h-256zM768 256h512v768h-512v-256h256v-256h-256v-256z" />
<glyph unicode="&#xf1;" d="M0 0v1280h512v-256h256v-256h256v512h512v-1280h-512v256h-256v256h-256v-512h-512zM256 1536v256h154v102h102v154h256v-154h102v-102h154v256h256v-256h-154v-102h-102v-154h-256v154h-102v102h-154v-256h-256z" />
<glyph unicode="&#xf2;" d="M0 256v768h154v102h102v154h1024v-154h102v-102h154v-768h-154v-102h-102v-154h-1024v154h-102v102h-154zM512 256h512v768h-512v-768zM512 1792v256h256v-51h205v-205h51v-256h-256v154h-102v102h-154z" />
<glyph unicode="&#xf3;" d="M0 256v768h154v102h102v154h1024v-154h102v-102h154v-768h-154v-102h-102v-154h-1024v154h-102v102h-154zM512 256h512v768h-512v-768zM512 1536v256h51v205h205v51h256v-256h-154v-102h-102v-154h-256z" />
<glyph unicode="&#xf4;" d="M0 256v768h154v102h102v154h1024v-154h102v-102h154v-768h-154v-102h-102v-154h-1024v154h-102v102h-154zM256 1536v256h154v102h102v154h512v-154h102v-102h154v-256h-256v154h-102v102h-308v-102h-102v-154h-256zM512 256h512v768h-512v-768z" />
<glyph unicode="&#xf5;" d="M0 256v768h154v102h102v154h1024v-154h102v-102h154v-768h-154v-102h-102v-154h-1024v154h-102v102h-154zM256 1536v256h154v102h102v154h256v-154h102v-102h154v256h256v-256h-154v-102h-102v-154h-256v154h-102v102h-154v-256h-256zM512 256h512v768h-512v-768z" />
<glyph unicode="&#xf6;" d="M0 256v768h154v102h102v154h1024v-154h102v-102h154v-768h-154v-102h-102v-154h-1024v154h-102v102h-154zM0 1536v256h512v-256h-512zM512 256h512v768h-512v-768zM1024 1536v256h512v-256h-512z" />
<glyph unicode="&#xf7;" d="M0 512v256h1536v-256h-1536zM512 0v256h512v-256h-512zM512 1024v256h512v-256h-512z" />
<glyph unicode="&#xf8;" d="M0 0v256h256v154h-102v102h-154v512h154v102h102v154h512v-51h205v-205h51v256h512v-256h-256v-154h102v-102h154v-512h-154v-102h-102v-154h-512v51h-205v205h-51v-256h-512zM256 717h205v-205h51v256h256v256h-307v-205h-205v-102zM768 256h307v205h205v102h-205v205 h-51v-256h-256v-256z" />
<glyph unicode="&#xf9;" d="M0 256v1024h512v-1024h512v1024h512v-1024h-154v-102h-102v-154h-1024v154h-102v102h-154zM512 1792v256h256v-51h205v-205h51v-256h-256v154h-102v102h-154z" />
<glyph unicode="&#xfa;" d="M0 256v1024h512v-1024h512v1024h512v-1024h-154v-102h-102v-154h-1024v154h-102v102h-154zM512 1536v256h51v205h205v51h256v-256h-154v-102h-102v-154h-256z" />
<glyph unicode="&#xfb;" d="M0 256v1024h512v-1024h512v1024h512v-1024h-154v-102h-102v-154h-1024v154h-102v102h-154zM256 1536v256h154v102h102v154h512v-154h102v-102h154v-256h-256v154h-102v102h-308v-102h-102v-154h-256z" />
<glyph unicode="&#xfc;" d="M0 256v1024h512v-1024h512v1024h512v-1024h-154v-102h-102v-154h-1024v154h-102v102h-154zM0 1536v256h512v-256h-512zM1024 1536v256h512v-256h-512z" />
<glyph unicode="&#xfd;" d="M0 1024v256h512v-256h512v256h512v-256h-256v-256h-256v-768h-512v768h-256v256h-256zM512 1536v256h51v205h205v51h256v-256h-154v-102h-102v-154h-256z" />
<glyph unicode="&#xfe;" d="M0 -256v1792h512v-512h51v205h205v51h512v-154h102v-102h154v-768h-154v-102h-102v-154h-512v51h-205v205h-51v-512h-512zM512 358h102v-102h410v768h-410v-102h-102v-564z" />
<glyph unicode="&#xff;" d="M0 1024v256h512v-256h512v256h512v-256h-256v-256h-256v-768h-512v768h-256v256h-256zM0 1536v256h512v-256h-512zM1024 1536v256h512v-256h-512z" />
<glyph unicode="&#x152;" horiz-adv-x="2816" d="M0 256v768h154v102h102v154h2304v-256h-1024v-256h870v-102h-102v-154h-768v-256h1024v-256h-2304v154h-102v102h-154zM512 256h512v768h-512v-768z" />
<glyph unicode="&#x153;" horiz-adv-x="2816" d="M0 256v768h154v102h102v154h2304v-256h-1024v-256h870v-102h-102v-154h-768v-256h1024v-256h-2304v154h-102v102h-154zM512 256h512v768h-512v-768z" />
<glyph unicode="&#x178;" d="M0 1024v256h512v-256h512v256h512v-256h-256v-256h-256v-768h-512v768h-256v256h-256zM0 1536v256h512v-256h-512zM1024 1536v256h512v-256h-512z" />
<glyph unicode="&#x2c6;" horiz-adv-x="1024" d="M0 1536v256h154v102h102v154h256v-154h102v-102h154v-256h-256v256h-154v-102h-102v-154h-256z" />
<glyph unicode="&#x2dc;" horiz-adv-x="1280" d="M0 1536v256h154v102h102v154h256v-154h102v-102h154v256h256v-256h-154v-102h-102v-154h-256v154h-102v102h-154v-256h-256z" />
<glyph unicode="&#x2013;" d="M0 512v256h1536v-256h-1536z" />
<glyph unicode="&#x2014;" horiz-adv-x="2304" d="M0 512v256h2048v-256h-2048z" />
<glyph unicode="&#x2018;" horiz-adv-x="768" d="M0 768v256h154v102h102v154h256v-256h-51v-205h-205v-51h-256z" />
<glyph unicode="&#x2019;" horiz-adv-x="768" d="M0 768v256h51v205h205v51h256v-256h-154v-102h-102v-154h-256z" />
<glyph unicode="&#x201a;" horiz-adv-x="768" d="M0 0h51v205h205v51h256v-256h-154v-102h-102v-154h-256v256z" />
<glyph unicode="&#x201c;" horiz-adv-x="1536" d="M0 768v256h154v102h102v154h256v-256h-51v-205h-205v-51h-256zM768 768v256h154v102h102v154h256v-256h-51v-205h-205v-51h-256z" />
<glyph unicode="&#x201d;" horiz-adv-x="1536" d="M0 768v256h51v205h205v51h256v-256h-154v-102h-102v-154h-256zM768 768v256h51v205h205v51h256v-256h-154v-102h-102v-154h-256z" />
<glyph unicode="&#x201e;" horiz-adv-x="1536" d="M0 0h51v205h205v51h256v-256h-154v-102h-102v-154h-256v256zM768 0h51v205h205v51h256v-256h-154v-102h-102v-154h-256v256z" />
<glyph unicode="&#x2022;" horiz-adv-x="1536" d="M0 256v768h256v256h768v-256h256v-768h-256v-256h-768v256h-256z" />
<glyph unicode="&#x2026;" horiz-adv-x="2304" d="M0 0v256h512v-256h-512zM768 0v256h512v-256h-512zM1536 0v256h512v-256h-512z" />
<glyph unicode="&#x2039;" horiz-adv-x="1280" d="M0 512v256h256v256h256v256h512v-256h-256v-256h-256v-256h256v-256h256v-256h-512v256h-256v256h-256z" />
<glyph unicode="&#x203a;" horiz-adv-x="1280" d="M0 0v256h256v256h256v256h-256v256h-256v256h512v-256h256v-256h256v-256h-256v-256h-256v-256h-512z" />
<glyph unicode="&#x20ac;" d="M0 256v768h154v102h102v154h1280v-256h-1024v-256h870v-102h-102v-154h-768v-256h1024v-256h-1280v154h-102v102h-154z" />
<glyph unicode="&#x2122;" d="M51 1075v205h973v-154h102v-102h154v256h256v-768h-256v307h-205v205h-51v-512h-256v766h-51v-203h-205v-563h-256v563h-205z" />
<glyph unicode="&#xe000;" horiz-adv-x="1280" d="M0 1280h1280v-1280h-1280v1280z" />
<glyph unicode="&#xfb01;" horiz-adv-x="2560" d="M0 0v1280h1536v-256h-1024v-256h870v-102h-102v-154h-768v-512h-512zM1792 0v1280h512v-1280h-512z" />
<glyph unicode="&#xfb02;" horiz-adv-x="3328" d="M0 0v1280h1536v-256h-1024v-256h870v-102h-102v-154h-768v-512h-512zM1792 0v1280h512v-1024h768v-256h-1280z" />
<glyph unicode="&#xfb03;" horiz-adv-x="4352" d="M0 0v1280h1536v-256h-1024v-256h870v-102h-102v-154h-768v-512h-512zM1792 0v1280h1536v-256h-1024v-256h870v-102h-102v-154h-768v-512h-512zM3584 0v1280h512v-1280h-512z" />
<glyph unicode="&#xfb04;" horiz-adv-x="5120" d="M0 0v1280h1536v-256h-1024v-256h870v-102h-102v-154h-768v-512h-512zM1792 0v1280h1536v-256h-1024v-256h870v-102h-102v-154h-768v-512h-512zM3584 0v1280h512v-1024h768v-256h-1280z" />
</font>
</defs>
</svg>
